<svg width="224" height="86" viewBox="0 0 224 86" fill="none" xmlns="http://www.w3.org/2000/svg">
<g clip-path="url(#clip0_32_43)">
<path d="M0.000274658 25.9181C0.178473 22.5115 1.65648 19.3033 4.12945 16.955C6.60243 14.6068 9.88178 13.2976 13.2912 13.2975C13.6956 13.2975 14.095 13.3185 14.4903 13.3528C16.0451 10.6766 18.2744 8.45531 20.9556 6.91086C23.6369 5.36642 26.6762 4.55285 29.77 4.55139C32.8638 4.54994 35.9039 5.36066 38.5866 6.90258C41.2692 8.4445 43.5007 10.6637 45.0579 13.3384C45.3914 13.3133 45.7271 13.2964 46.0672 13.2964C49.4765 13.2965 52.7558 14.6056 55.2288 16.9538C57.7018 19.302 59.1798 22.5102 59.358 25.9167" fill="#8863AF"/>
<path d="M2.77206 24.8939C2.95026 21.4874 4.42827 18.2791 6.90124 15.9309C9.37422 13.5826 12.6536 12.2735 16.063 12.2734C16.4674 12.2734 16.8668 12.2944 17.2621 12.3286C18.8169 9.65239 21.0462 7.43114 23.7274 5.88669C26.4087 4.34225 29.448 3.52868 32.5418 3.52722C35.6356 3.52577 38.6757 4.33649 41.3584 5.87841C44.0411 7.42033 46.2725 9.63949 47.8297 12.3142C48.1632 12.2891 48.4989 12.2723 48.839 12.2723C52.2483 12.2723 55.5276 13.5815 58.0006 15.9297C60.4735 18.2778 61.9516 21.486 62.1298 24.8925" stroke="#1A1423" stroke-miterlimit="10"/>
<path d="M18.2263 74.2436C18.8161 62.9686 23.7079 52.35 31.893 44.5778C40.078 36.8056 50.9319 32.4726 62.2163 32.4724C63.5551 32.4724 64.8771 32.5423 66.1856 32.6594C71.3315 23.8017 78.71 16.4499 87.5842 11.3382C96.4585 6.22641 106.518 3.53365 116.758 3.52882C126.997 3.52398 137.059 6.20723 145.938 11.3106C154.817 16.414 162.203 23.7588 167.357 32.6116C168.461 32.5287 169.572 32.4735 170.697 32.4735C181.981 32.4737 192.835 36.8066 201.02 44.5785C209.205 52.3505 214.097 62.9688 214.687 74.2436" fill="#8863AF"/>
<path d="M27.4014 70.8534C27.9914 59.5786 32.8833 48.9602 41.0683 41.1883C49.2533 33.4163 60.1071 29.0834 71.3913 29.0832C72.7301 29.0832 74.0521 29.1531 75.3606 29.2702C80.5065 20.4126 87.885 13.0607 96.7592 7.949C105.633 2.83725 115.693 0.144491 125.933 0.139655C136.172 0.134819 146.234 2.81807 155.113 7.92143C163.992 13.0248 171.378 20.3696 176.532 29.2224C177.636 29.1396 178.747 29.0843 179.872 29.0843C191.156 29.0845 202.01 33.4172 210.195 41.189C218.38 48.9607 223.272 59.5788 223.862 70.8534" stroke="#1A1423" stroke-miterlimit="10"/>
<path d="M46.0923 86.0002C46.3334 81.3909 48.3332 77.0499 51.6793 73.8726C55.0254 70.6953 59.4626 68.9239 64.0757 68.9238C64.6231 68.9238 65.1634 68.9514 65.6983 69.0003C67.802 65.3793 70.8184 62.3739 74.4462 60.2842C78.074 58.1945 82.1863 57.0937 86.3724 57.0917C90.5585 57.0897 94.6718 58.1866 98.3016 60.2729C101.931 62.3591 104.951 65.3617 107.058 68.9807C107.509 68.9467 107.963 68.9238 108.423 68.9238C113.036 68.9239 117.473 70.6952 120.819 73.8724C124.165 77.0496 126.165 81.3905 126.407 85.9997" fill="#432458"/>
<path d="M49.8432 84.614C50.0842 80.0046 52.0841 75.6635 55.4302 72.4861C58.7764 69.3087 63.2137 67.5373 67.8269 67.5373C68.3743 67.5373 68.9146 67.565 69.4495 67.6138C71.5532 63.9927 74.5696 60.9872 78.1975 58.8975C81.8253 56.8078 85.9376 55.7069 90.1238 55.705C94.3099 55.703 98.4233 56.7999 102.053 58.8862C105.683 60.9725 108.702 63.9751 110.809 67.5942C111.261 67.5603 111.715 67.5373 112.175 67.5373C116.788 67.5373 121.225 69.3086 124.571 72.4859C127.918 75.6633 129.918 80.0044 130.159 84.6138" stroke="#1A1423" stroke-miterlimit="10"/>
</g>
<defs>
<clipPath id="clip0_32_43">
<rect width="224" height="86" fill="white"/>
</clipPath>
</defs>
</svg>
